{"title":"Beginners 2012 DvDRip XviD Feel-Free","uid":7099612,"size":689263540,"categoryP":"video","categoryS":"movies","magnet":"?xt=urn:btih:ef3ed25712efe81891ccd27d6c073d7850513099&amp;dn=Beginners+2012+DvDRip+XviD+Feel-Free&amp;tr=udp%3A%2F%2Ftracker.openbittorrent.com%3A80&amp;tr=udp%3A%2F%2Fopen.demonii.com%3A1337&amp;tr=udp%3A%2F%2Ftracker.coppersurfer.tk%3A6969&amp;tr=udp%3A%2F%2Fexodus.desync.com%3A6969","seeders":1,"leechers":0,"uploader":"newmouse","files":8,"time":1331654891,"description":"Genre:Comedy | Drama | Romance\nLanguage:English\nIMDb:http://www.imdb.com/title/tt1532503/\nSource:DVD Thanks!\nEncoder:Tony\n\nFormat : AVI\nFormat/Info : Audio Video Interleave\nFile size : 656 MiB\nDuration : 1h 39mn\nOverall bit rate : 921 Kbps\n\nVideo\nID : 0\nFormat : MPEG-4 Visual\nFormat profile : Advanced Simple@L5\nFormat settings, BVOP : 1\nFormat settings, QPel : No\nFormat settings, GMC : No warppoints\nFormat settings, Matrix : Default (H.263)\nCodec ID : XVID\nCodec ID/Hint : XviD\nDuration : 1h 39mn\nBit rate : 720 Kbps\nWidth : 640 pixels\nHeight : 360 pixels\nDisplay aspect ratio : 16:9\nFrame rate : 25.000 fps\nColor space : YUV\nChroma subsampling : 4:2:0\nBit depth : 8 bits\nScan type : Progressive\nCompression mode : Lossy\nBits/(Pixel*Frame) : 0.125\nStream size : 513 MiB (78%)\nWriting library : XviD 1.2.1 (UTC 2008-12-04)\n\nAudio\nID : 1\nFormat : AC-3\nFormat/Info : Audio Coding 3\nMode extension : CM (complete main)\nCodec ID : 2000\nDuration : 1h 39mn\nBit rate mode : Constant\nBit rate : 192 Kbps\nChannel(s) : 2 channels\nChannel positions : Front: L R\nSampling rate : 48.0 KHz\nBit depth : 16 bits\nCompression mode : Lossy\nStream size : 137 MiB (21%)\nAlignment : Aligned on interleaves\nInterleave, duration : 40 ms (1.00 video frame)\nInterleave, preload duration : 512 ms\n\n\nPlot:\nA young man is rocked by two announcements from his elderly father: that he has terminal cancer, and that he has a young male lover.","torrent":{"xt":"urn:btih:ef3ed25712efe81891ccd27d6c073d7850513099","amp;dn":"Beginners+2012+DvDRip+XviD+Feel-Free","amp;tr":["udp%3A%2F%2Ftracker.openbittorrent.com%3A80","udp%3A%2F%2Fopen.demonii.com%3A1337","udp%3A%2F%2Ftracker.coppersurfer.tk%3A6969","udp%3A%2F%2Fexodus.desync.com%3A6969"],"infoHash":"ef3ed25712efe81891ccd27d6c073d7850513099","infoHashBuffer":{"type":"Buffer","data":[239,62,210,87,18,239,232,24,145,204,210,125,108,7,61,120,80,81,48,153]},"announce":[],"urlList":[]}}